<svg xmlns="http://www.w3.org/2000/svg" xmlns:xlink="http://www.w3.org/1999/xlink" width="2000" zoomAndPan="magnify" viewBox="0 0 1500 1499.999933" height="2000" preserveAspectRatio="xMidYMid meet" version="1.0"><defs><clipPath id="4698d4a78c"><path d="M 464.855469 410.171875 L 941.164062 410.171875 L 941.164062 886.480469 L 464.855469 886.480469 Z M 464.855469 410.171875 " clip-rule="nonzero"/></clipPath><clipPath id="20e8cfb76e"><path d="M 0.855469 0.171875 L 477.164062 0.171875 L 477.164062 476.480469 L 0.855469 476.480469 Z M 0.855469 0.171875 " clip-rule="nonzero"/></clipPath><clipPath id="608bb51daf"><rect x="0" width="478" y="0" height="477"/></clipPath><clipPath id="189f0550de"><path d="M 476 0 L 826 0 L 826 703 L 476 703 Z M 476 0 " clip-rule="nonzero"/></clipPath><clipPath id="d59ee2cc10"><path d="M 675.300781 739.53125 L 405.652344 -14.375 L 626.730469 -93.445312 L 896.375 660.457031 Z M 675.300781 739.53125 " clip-rule="nonzero"/></clipPath><clipPath id="4f273af2a9"><path d="M 540.480469 362.59375 C 614.941406 570.769531 724.789062 721.828125 785.835938 699.996094 C 846.886719 678.160156 836.015625 491.699219 761.558594 283.523438 C 687.101562 75.347656 577.253906 -75.710938 516.203125 -53.875 C 455.15625 -32.042969 466.023438 154.417969 540.480469 362.59375 Z M 540.480469 362.59375 " clip-rule="nonzero"/></clipPath><clipPath id="44ff306062"><path d="M 0 0 L 350 0 L 350 703 L 0 703 Z M 0 0 " clip-rule="nonzero"/></clipPath><clipPath id="bc8e1e0cdf"><path d="M 199.300781 739.53125 L -70.347656 -14.375 L 150.730469 -93.445312 L 420.375 660.457031 Z M 199.300781 739.53125 " clip-rule="nonzero"/></clipPath><clipPath id="7ffd470a6b"><path d="M 64.480469 362.59375 C 138.941406 570.769531 248.789062 721.828125 309.835938 699.996094 C 370.886719 678.160156 360.015625 491.699219 285.558594 283.523438 C 211.101562 75.347656 101.253906 -75.710938 40.203125 -53.875 C -20.84375 -32.042969 -9.976562 154.417969 64.480469 362.59375 Z M 64.480469 362.59375 " clip-rule="nonzero"/></clipPath><clipPath id="85eb8d4266"><rect x="0" width="350" y="0" height="703"/></clipPath><clipPath id="7a70867648"><path d="M 593 755 L 968 755 L 968 1387 L 593 1387 Z M 593 755 " clip-rule="nonzero"/></clipPath><clipPath id="7ec0b8ddbf"><path d="M 858.257812 1429.671875 L 527.753906 804.410156 L 702.691406 711.941406 L 1033.195312 1337.203125 Z M 858.257812 1429.671875 " clip-rule="nonzero"/></clipPath><clipPath id="471d8fe57d"><path d="M 693.164062 1117.339844 C 784.34375 1289.835938 897.421875 1408.972656 945.726562 1383.4375 C 994.035156 1357.902344 959.28125 1197.367188 868.101562 1024.871094 C 776.921875 852.371094 663.847656 733.234375 615.539062 758.769531 C 567.230469 784.304688 601.984375 944.839844 693.164062 1117.339844 Z M 693.164062 1117.339844 " clip-rule="nonzero"/></clipPath><clipPath id="aaa867941a"><path d="M 0 0 L 375 0 L 375 632 L 0 632 Z M 0 0 " clip-rule="nonzero"/></clipPath><clipPath id="2c25ed0b04"><path d="M 265.257812 674.671875 L -65.246094 49.410156 L 109.691406 -43.058594 L 440.195312 582.203125 Z M 265.257812 674.671875 " clip-rule="nonzero"/></clipPath><clipPath id="1b08f59a02"><path d="M 100.164062 362.339844 C 191.34375 534.835938 304.421875 653.972656 352.726562 628.4375 C 401.035156 602.902344 366.28125 442.367188 275.101562 269.871094 C 183.921875 97.371094 70.847656 -21.765625 22.539062 3.769531 C -25.769531 29.304688 8.984375 189.839844 100.164062 362.339844 Z M 100.164062 362.339844 " clip-rule="nonzero"/></clipPath><clipPath id="7dc3c5cf94"><rect x="0" width="375" y="0" height="632"/></clipPath></defs><rect x="-150" width="1800" fill="#ffffff" y="-149.999993" height="1799.99992" fill-opacity="1"/><rect x="-150" width="1800" fill="#ffffff" y="-149.999993" height="1799.99992" fill-opacity="1"/><g clip-path="url(#4698d4a78c)"><g transform="matrix(1, 0, 0, 1, 464, 410)"><g clip-path="url(#608bb51daf)"><g clip-path="url(#20e8cfb76e)"><path fill="#000000" d="M 0.855469 0.171875 L 477.164062 0.171875 L 477.164062 476.480469 L 0.855469 476.480469 Z M 0.855469 0.171875 " fill-opacity="1" fill-rule="nonzero"/></g></g></g></g><g clip-path="url(#189f0550de)"><g clip-path="url(#d59ee2cc10)"><g clip-path="url(#4f273af2a9)"><g transform="matrix(1, 0, 0, 1, 476, 0.000000000000112861)"><g clip-path="url(#85eb8d4266)"><g clip-path="url(#44ff306062)"><g clip-path="url(#bc8e1e0cdf)"><g clip-path="url(#7ffd470a6b)"><path fill="#ffffff" d="M 199.300781 739.53125 L -70.347656 -14.375 L 150.730469 -93.445312 L 420.375 660.457031 Z M 199.300781 739.53125 " fill-opacity="1" fill-rule="nonzero"/></g></g></g></g></g></g></g></g><g clip-path="url(#7a70867648)"><g clip-path="url(#7ec0b8ddbf)"><g clip-path="url(#471d8fe57d)"><g transform="matrix(1, 0, 0, 1, 593, 755)"><g clip-path="url(#7dc3c5cf94)"><g clip-path="url(#aaa867941a)"><g clip-path="url(#2c25ed0b04)"><g clip-path="url(#1b08f59a02)"><path fill="#ffffff" d="M 265.257812 674.671875 L -64.882812 50.09375 L 110.050781 -42.378906 L 440.195312 582.203125 Z M 265.257812 674.671875 " fill-opacity="1" fill-rule="nonzero"/></g></g></g></g></g></g></g></g></svg>